<svg xmlns="http://www.w3.org/2000/svg" height="300px" width="300px" fill="#fff" viewBox="0 0 32 32" x="0px" y="0px"><title>Database History</title><g data-name="035 Database History"><g><path d="M8.6,2.518,8.291.541C7.575.651,6.9.776,6.262.915l.426,1.954C7.285,2.739,7.923,2.621,8.6,2.518Z"/><path d="M12.485,2.105l-.127-2q-1.049.066-2.035.17l.208,1.99C11.162,2.2,11.813,2.147,12.485,2.105Z"/><path d="M32.03,5.041C32.03,1.607,23.743.021,16.05,0h-.165q-.755,0-1.492.019l.053,2C14.919,2.006,15.4,2,15.885,2h.153C25.27,2.025,30.03,4.143,30.03,5.039S25.311,8,16.175,8h-.153C6.791,7.975,2.03,5.857,2.03,4.961c0-.152.479-.874,2.811-1.608l-.6-1.907C1.452,2.323.036,3.5.031,4.956h0l-.019,7h0v.01l-.019,6.99h0l0,.014L-.03,26.956c0,1.609,1.72,2.891,5.125,3.809A44.077,44.077,0,0,0,15.956,32h.159a43.874,43.874,0,0,0,10.709-1.176c3.41-.9,5.141-2.171,5.146-3.78l.06-22h0ZM2,14.553A21.6,21.6,0,0,0,8.819,16.5a7.791,7.791,0,0,0-.693,4.873c-4.607-.789-6.117-2-6.134-2.4ZM29.97,27.039c0,.187-.623,1.051-3.657,1.851A42.619,42.619,0,0,1,15.962,30,42.085,42.085,0,0,1,5.616,28.834c-3.029-.817-3.646-1.685-3.646-1.872l.015-5.394A21.625,21.625,0,0,0,8.82,23.505a7.982,7.982,0,0,0,14.344.034,21.486,21.486,0,0,0,6.82-1.891ZM10,20a6,6,0,1,1,6,6A6.006,6.006,0,0,1,10,20Zm19.992-.96h0c0,.4-1.5,1.6-6.122,2.368a7.806,7.806,0,0,0-.669-4.874A21.48,21.48,0,0,0,30,14.629Zm.019-7.006h0c0,.454-2.015,1.948-8.056,2.641a7.962,7.962,0,0,0-11.879-.031c-6.035-.723-8.05-2.219-8.064-2.679l.012-4.42C4.939,9.2,10.615,9.985,16.01,10h.165c5.334,0,10.945-.761,13.848-2.382Z"/><polygon points="19 20 17 20 17 16 15 16 15 22 19 22 19 20"/></g></g></svg>
